<svg xmlns="http://www.w3.org/2000/svg" xmlns:xlink="http://www.w3.org/1999/xlink" viewBox="0 0 251 251" fill="#fff" fill-rule="evenodd" stroke="#000" stroke-linecap="round" stroke-linejoin="round"><use xlink:href="#A" x=".5" y=".5"/><symbol id="A" overflow="visible"><g fill-rule="nonzero"><path d="M234.665 250H15.335C6.837 250 0 243.114 0 234.665V15.335C0 6.837 6.886 0 15.335 0h219.33C243.163 0 250 6.886 250 15.335v219.33A15.3 15.3 0 0 1 234.665 250z" stroke="#0078d7" stroke-linejoin="miter" fill="#0078d7"/><g stroke="none"><path d="M171.957 78.092l-.049 2.149c-5.665-1.221-11.574-2.198-17.679-2.979-.44-15.775-13.333-28.424-29.205-28.424S96.21 61.487 95.82 77.261c-6.105.781-12.014 1.758-17.679 2.979-.049-.732-.049-1.465-.049-2.198 0-25.933 21-46.982 46.982-46.982 25.835.098 46.884 21.098 46.884 47.031zM125.22 218.94c82.926-34.87 70.277-123.657 70.277-123.657-19.34-7.228-43.758-11.526-70.375-11.526s-51.035 4.298-70.375 11.526c0 0-12.649 88.787 70.277 123.657z"/><path d="M148.5 163.506c0 1.031-.049 2.012-.195 2.994h-45.609c-.147-.982-.196-1.963-.196-2.994 0-10.406 6.844-19.192 16.278-22.088-6.355-2.651-10.852-8.933-10.852-16.296 0-9.768 7.87-17.621 17.549-17.621s17.549 7.903 17.549 17.621c0 7.363-4.497 13.646-10.852 16.296 9.484 2.847 16.327 11.682 16.327 22.088z" fill="#0078d7"/></g></g></symbol></svg>